<?xml version="1.0" encoding="utf-8"?>
<!-- Generator: Adobe Illustrator 18.0.0, SVG Export Plug-In . SVG Version: 6.00 Build 0)  -->
<!DOCTYPE svg PUBLIC "-//W3C//DTD SVG 1.1//EN" "http://www.w3.org/Graphics/SVG/1.1/DTD/svg11.dtd">
<svg version="1.1" id="Layer_1" xmlns="http://www.w3.org/2000/svg" xmlns:xlink="http://www.w3.org/1999/xlink" x="0px" y="0px"
	 viewBox="0 0 410 438" style="enable-background:new 0 0 410 438;" xml:space="preserve">
<g>
	<ellipse style="opacity:0.2;" cx="210.2" cy="391" rx="108.3" ry="24.1"/>
	<g>
		<path style="fill:#19272D;" d="M262,375.6c0,0,0.3,0,0.7-0.1c0.5-0.1,1.4-0.2,2.5-0.5c2.2-0.5,5.5-1.2,9.6-2.6
			c4-1.4,8.9-3.4,13.8-6.4c4.9-3,9.9-7.1,13.8-12.5c2-2.7,3.5-5.7,4.7-9.1c0.6-1.7,1.1-3.4,1.4-5.2l0.2-0.7l0-0.1
			c0-0.1-0.1,0.3,0,0.1l0-0.2l0.1-0.4l0.3-1.7c0.2-1.2,0.3-2.1,0.4-3c1-8.1,0.6-16.9-1.5-25.7c-2-8.9-5.7-17.7-10.1-27
			c-2.2-4.7-4.7-9.3-7.1-15c-0.6-1.4-1.2-3-1.7-4.6l-0.6-2l-0.7-2.4c-0.8-3-1.4-6-1.8-9c-1.8-11.9-1.8-23.9,0.5-35.9
			c1.2-6,3.1-11.9,5.7-17.5c2.6-5.7,6.3-11,10.7-15.6c4.4-4.6,9.7-8.3,15.2-10.9c5.5-2.6,11.2-4.1,16.6-4.8c1.4-0.2,2.7-0.3,4-0.5
			c1.3-0.1,2.5-0.2,3.7-0.2c1.2-0.1,2.8,0,4.2,0c1.4,0,2.7,0.2,4.1,0.3c5.4,0.5,10.8,1.9,15.7,4.5c4.9,2.6,9.5,6.4,12.4,11.2
			c3.1,4.7,4.4,10.3,4.2,15.5c-0.1,5.2-1.8,9.8-4.1,13.4c-2.3,3.7-5.1,6.4-7.8,8.4c-5.5,3.9-10.3,5.2-13.5,5.8
			c-1.6,0.4-2.8,0.5-3.6,0.6c-0.8,0.1-1.2,0.2-1.2,0.2c-5,0.7-9.5-2.8-10.2-7.8c-0.7-4.8,2.5-9.2,7.2-10.1l0.9-0.2
			c0,0,0.2,0,0.7-0.1c0.5-0.1,1.2-0.2,2.1-0.5c1.8-0.4,4.2-1.3,6.3-3.1c2.1-1.7,3.7-4.2,3.7-7.1c-0.1-2.8-1.7-6-6.3-8.2
			c-2.2-1.1-5.1-1.8-8.4-2c-0.8,0-1.7-0.1-2.5-0.1c-0.8,0-1.5,0-2.5,0.1c-1,0.1-2,0.2-3,0.3c-0.9,0.2-1.8,0.3-2.8,0.5
			c-3.7,0.8-7.2,2-10.4,3.7c-3.2,1.7-6.1,3.9-8.6,6.7c-5,5.5-8.5,13.3-10.3,22.2c-1.9,8.9-2,18.7-0.8,28.1c0.3,2.4,0.7,4.7,1.2,6.9
			l0.3,1.5c0.1,0.5,0.3,1.3,0.5,1.9c0.2,0.9,0.6,1.9,0.9,3c1.6,4.3,3.9,9.3,6,14.3c4.3,10,8.1,20.8,10,31.8c1.9,11,2,22,0.4,32.2
			c-0.2,1.3-0.4,2.7-0.7,3.8l-0.4,1.7l-0.2,1l-0.3,1c-0.6,2.6-1.5,5.1-2.4,7.5c-1.9,4.8-4.5,9.2-7.4,12.9
			c-5.8,7.6-12.7,12.8-19.1,16.5c-6.3,3.7-12.2,6-17.1,7.6c-4.9,1.6-8.8,2.6-11.5,3.1c-1.4,0.3-2.4,0.5-3.2,0.6
			c-0.8,0.1-1.2,0.2-1.2,0.2c-4.5,0.6-8.6-2.4-9.3-6.9c-0.6-4.5,2.4-8.6,6.9-9.3L262,375.6z"/>
		<path style="fill:#19272D;" d="M99.9,77.9c0,0-40.9-19.8-45.7-19.2c0,0-10.8,37.3-9.6,64.9L99.9,77.9z"/>
		<path style="fill:#39474C;" d="M92.4,84.1C79.9,78.3,62.1,70.3,59,70.7c0,0-7.1,24.5-9.2,48.6L92.4,84.1z"/>
		<path style="fill:#1E2D36;" d="M271.2,293.7c0,0-19.8-58.3-48.9-86.8c-16.8,2.8-35.5,4.2-55.3,4.2c-7.6,0-15-0.2-22.2-0.6
			c0.8,2.1,2.2,3.9,3.7,5.6c3.3,3.6,9.9,13,9,32c-1.2,25.2,0.6,92-10.8,102.8c0,0-15,4.2-22.2,13.8s-4.8,22.2-4.8,22.2
			s22.8,18.6,52.3,19.8c39.7,1.6,91.4-4.5,107-19.2c21.6-20.4,20.6-66.1,16.8-80C291.6,291.9,283.8,282.9,271.2,293.7z"/>
		<path style="opacity:0.25;" d="M222.3,207c-16.8,2.8-35.5,4.2-55.3,4.2c-7.6,0-15-0.2-22.2-0.6c0.8,2.1,2.2,3.9,3.7,5.6
			c1.4,1.5,3.2,3.9,5,7.6c5.9-0.1,12-0.3,18.1-0.6c20.9-1.2,40.5-3.9,57.9-8.1C227.3,212.1,224.8,209.4,222.3,207z"/>
		<path style="fill:#19272D;" d="M218.9,73.7c0,0,43.9-30.1,62.5-33.1c0,0,19.2,50.5,9.6,89.6L218.9,73.7z"/>
		<path style="fill:#39474C;" d="M226.7,79.9l61.9,48.5c2.3-35.5-12-73.3-12-73.3C264.4,57,241.2,70.7,226.7,79.9z"/>
		<path style="fill:#1E2D36;" d="M300.5,151c0,46.5-59.8,64.9-133.5,64.9S33.6,197.5,33.6,151s59.8-93.8,133.5-93.8
			S300.5,104.5,300.5,151z"/>
		<g>
			<path style="fill:#C9DB2B;" d="M197.3,154.9c0,0-2.4-30.9,25.2-44.5c24.1-11.9,41.6,11.3,43.5,19.4c3.9,17-13.1,23.6-29.4,27.3
				C221.2,160.6,201.3,157.7,197.3,154.9z"/>
			<path style="opacity:0.25;fill:#FFFFFF;" d="M218.4,149.7c-5.8-0.6-9.9-6.2-8.5-11.8c1.6-6.6,5.7-15,15.7-19.9
				c16-7.9,27.6,7.5,28.9,12.9c2.6,11.3-8.7,15.7-19.5,18.1C229.7,150.2,223.5,150.2,218.4,149.7z"/>
			<path style="fill:#19272D;" d="M235.7,134.4c0,7.5-2.3,13.6-2.3,13.6s-2.3-6.1-2.3-13.6c0-7.5,2.3-13.6,2.3-13.6
				S235.7,126.9,235.7,134.4z"/>
			<circle style="fill:#FFFFFF;" cx="228.5" cy="128.8" r="4.9"/>
		</g>
		<g>
			<path style="fill:#C9DB2B;" d="M137,154.9c0,0,2.4-30.9-25.2-44.5c-24.1-11.9-41.6,11.3-43.5,19.4c-3.9,17,13.1,23.6,29.4,27.3
				C113.1,160.6,133,157.7,137,154.9z"/>
			<path style="opacity:0.25;fill:#FFFFFF;" d="M115.9,149.7c5.8-0.6,9.9-6.2,8.5-11.8c-1.6-6.6-5.7-15-15.7-19.9
				c-16-7.9-27.6,7.5-28.9,12.9c-2.6,11.3,8.7,15.7,19.5,18.1C104.6,150.2,110.8,150.2,115.9,149.7z"/>
			<path style="fill:#19272D;" d="M98.6,134.4c0,7.5,2.3,13.6,2.3,13.6s2.3-6.1,2.3-13.6c0-7.5-2.3-13.6-2.3-13.6
				S98.6,126.9,98.6,134.4z"/>
			<circle style="fill:#FFFFFF;" cx="96.2" cy="128.8" r="4.9"/>
		</g>
		<ellipse style="fill:#39474C;" cx="167.8" cy="176.2" rx="20.1" ry="8.7"/>
		<path style="fill:#39474C;" d="M178.6,288.3c-0.1,13.1-0.4,26.3-1.1,39.4c-0.4,6.6-0.8,13.2-1.5,19.7c-0.4,3.3-0.8,6.6-1.4,9.9
			c-0.3,1.7-0.7,3.3-1.2,5c-0.3,0.9-0.5,1.7-0.9,2.6c-0.4,0.9-0.8,1.8-1.8,2.9l-2,0.7h0c-0.2,0-0.6-0.1-0.9-0.1c-0.3,0-0.7,0-1,0
			c-0.7,0-1.4,0.1-2,0.2c-1.3,0.2-2.6,0.6-3.8,1.3c-1.2,0.6-2.2,1.5-3,2.6c-0.4,0.5-0.8,1.1-1.1,1.7c-0.2,0.3-0.3,0.6-0.4,1
			l-0.1,0.2l0,0.1c0-0.1,0,0,0,0l0,0.1l-0.2,0.6l-0.4,1.1l-0.3,1.1c-0.2,0.7-0.3,1.5-0.5,2.2c-0.1,0.8-0.3,1.5-0.4,2.3
			c-0.1,0.8-0.2,1.5-0.3,2.3c-0.3,3.1-0.3,6.3,0.1,9.4l0,0c0,0.1-0.1,0.2-0.2,0.2c-0.1,0-0.2-0.1-0.2-0.2c-0.8-3.1-1.2-6.3-1.3-9.5
			c0-0.8,0-1.6,0-2.4c0-0.8,0.1-1.6,0.1-2.4c0.1-0.8,0.1-1.6,0.3-2.4l0.2-1.2l0.2-1.2l0.1-0.6l0-0.1l0-0.2l0.1-0.3
			c0.1-0.4,0.2-0.8,0.4-1.3c0.3-0.8,0.7-1.7,1.1-2.5c0.9-1.6,2.2-3,3.7-4.1c1.5-1.1,3.2-1.9,4.9-2.4c0.9-0.3,1.7-0.5,2.6-0.6
			c0.4-0.1,0.9-0.1,1.3-0.2c0.5,0,0.9-0.1,1.5-0.1l0,0l-2,0.7c0.1-0.1,0.5-0.6,0.8-1.2c0.3-0.6,0.6-1.3,0.8-2c0.5-1.4,0.9-3,1.3-4.5
			c0.7-3.1,1.3-6.3,1.9-9.5c1-6.4,1.8-12.9,2.5-19.4c1.4-13,2.4-26.1,3.2-39.2c0-0.3,0.3-0.6,0.6-0.5
			C178.4,287.8,178.6,288,178.6,288.3z"/>
		<path style="fill:#39474C;" d="M258.4,306.7c-1.2,1-2.4,2-3.5,3.1c-1.1,1.1-2.2,2.2-3.3,3.3c-1.1,1.1-2.1,2.3-3.1,3.5
			c-1,1.2-2,2.4-2.9,3.7c-0.9,1.2-1.8,2.5-2.6,3.8c-0.4,0.6-0.8,1.3-1.2,2c-0.4,0.7-0.8,1.3-1.1,2l-1.1,2c-0.3,0.7-0.6,1.4-0.9,2.1
			c-0.7,1.4-1.1,2.8-1.6,4.3c-0.3,0.7-0.4,1.5-0.6,2.2c-0.2,0.7-0.4,1.5-0.5,2.2c-0.2,1.5-0.6,3.1-0.6,4.6c-0.2,1.5-0.1,3-0.1,4.5
			c0,0.7,0.1,1.5,0.1,2.2c0,0.7,0.1,1.5,0.2,2.2c0.2,1.5,0.5,2.9,0.8,4.4c0.4,1.4,0.8,2.9,1.3,4.2c0.5,1.4,1.1,2.7,1.8,4
			c0.3,0.7,0.7,1.3,1.1,1.9c0.2,0.3,0.4,0.6,0.6,0.9c0.2,0.3,0.4,0.6,0.6,0.8l5,6.3l-8-2.3l0,0c-0.7-0.3-1.6-0.6-2.4-0.8
			c-0.9-0.3-1.7-0.5-2.6-0.6c-0.9-0.2-1.7-0.3-2.6-0.4c-0.9-0.1-1.8-0.2-2.6-0.2l-1.3,0l-1.3,0.1c-0.9,0.1-1.7,0.2-2.5,0.4l-0.3,0.1
			l0,0c0,0-0.1,0,0.1,0l0,0l0,0l-0.1,0l-0.2,0.1l-0.7,0.2c-0.2,0.1-0.4,0.1-0.6,0.2l-0.5,0.2c-0.4,0.2-0.7,0.4-1.1,0.6
			c-0.3,0.2-0.7,0.4-1,0.7c-0.7,0.5-1.2,1.1-1.7,1.8c-0.5,0.7-1,1.4-1.3,2.2c-0.7,1.6-1.1,3.3-1.3,5.1c-0.2,1.8-0.2,3.7,0,5.5
			c0.2,1.8,0.5,3.7,0.9,5.5l0,0c0.1,0.3-0.1,0.6-0.4,0.7c-0.3,0.1-0.6-0.1-0.7-0.4c-0.7-1.9-1.1-3.7-1.5-5.6
			c-0.3-1.9-0.5-3.9-0.5-5.9c0.1-2,0.3-4,1-6c0.3-1,0.8-1.9,1.4-2.9c0.6-0.9,1.2-1.8,2-2.5c0.4-0.4,0.8-0.7,1.2-1.1
			c0.4-0.3,0.9-0.6,1.4-0.9c0.5-0.2,1.1-0.6,1.5-0.7l0.7-0.3l0.2-0.1l0.1,0l0,0l0.1,0l0.4-0.1c1-0.3,2-0.6,3-0.8l1.5-0.2l1.5-0.1
			c1-0.1,2-0.1,3.1-0.1c1,0,2,0.1,3,0.2c1,0.1,2,0.3,3,0.5c1,0.2,2,0.4,3.1,0.7l0,0l-3,4c-0.3-0.5-0.5-0.8-0.7-1.2
			c-0.2-0.4-0.4-0.7-0.6-1.1c-0.4-0.8-0.8-1.5-1.1-2.3c-0.7-1.5-1.3-3.1-1.8-4.7c-0.5-1.6-0.9-3.2-1.2-4.8c-0.3-1.6-0.5-3.3-0.6-4.9
			c-0.1-0.8-0.1-1.6-0.1-2.5c0-0.8,0-1.6,0-2.5c0.1-1.6,0.2-3.3,0.5-4.9c0.2-1.7,0.6-3.2,0.9-4.7c0.2-0.9,0.5-1.6,0.7-2.4
			c0.3-0.8,0.4-1.6,0.8-2.3c0.6-1.5,1.2-3,2-4.4c0.4-0.7,0.7-1.4,1.1-2.1l1.2-2.1c0.4-0.7,0.9-1.4,1.3-2c0.5-0.7,0.9-1.3,1.4-2
			c1-1.3,1.9-2.6,2.9-3.8c1-1.2,2.1-2.4,3.1-3.6c1.1-1.1,2.2-2.3,3.4-3.4c1.1-1.1,2.3-2.1,3.5-3.2c1.2-1,2.4-2,3.7-2.9
			c0.2-0.1,0.4-0.1,0.5,0.1C258.6,306.3,258.6,306.5,258.4,306.7z"/>
	</g>
</g>
</svg>
